# xmcd
#
# Track frame offsets: 
#        150
#        12463
#        31108
#        51877
#        63649
#
# Disc length: 1076 seconds
#
# Revision: 0
# Processed by: cddbd v1.5.2PL0 Copyright (c) Steve Scherf et al.
# Submitted via: ExactAudioCopy v1.3
#
DISCID=3c043205
DTITLE=Eilen Jewell - Heartache Boulevard EP
DYEAR=2007
DGENRE=Country
TTITLE0=Heartache Boulevard
TTITLE1=Fine and Mellow
TTITLE2=The Flood
TTITLE3=I'm Head Over Heels In Love
TTITLE4=Nobody's Business
EXTD=
EXTT0=
EXTT1=
EXTT2=
EXTT3=
EXTT4=
PLAYORDER=
